<svg xmlns="http://www.w3.org/2000/svg" xmlns:xlink="http://www.w3.org/1999/xlink" width="1000" zoomAndPan="magnify" viewBox="0 0 750 163.5" height="218" preserveAspectRatio="xMidYMid meet" version="1.0"><defs><g/></defs><g fill="#1e9756" fill-opacity="1"><g transform="translate(38.973913, 123.796587)"><g><path d="M 46.859375 -84.40625 L 54.375 -84.40625 L 5.296875 13.546875 L -2.21875 13.546875 Z M 46.859375 -84.40625 "/></g></g></g><g fill="#000000" fill-opacity="1"><g transform="translate(92.08493, 123.796587)"><g><path d="M 10.46875 -74.046875 L 18.828125 -74.046875 L 18.828125 -7.71875 L 60.5 -7.71875 L 60.5 0 L 10.46875 0 Z M 10.46875 -74.046875 "/></g></g></g><g fill="#000000" fill-opacity="1"><g transform="translate(156.503725, 123.796587)"><g><path d="M 11.21875 -74.046875 L 19.5625 -74.046875 L 19.5625 0 L 11.21875 0 Z M 11.21875 -74.046875 "/></g></g></g><g fill="#000000" fill-opacity="1"><g transform="translate(186.65041, 123.796587)"><g><path d="M 10.46875 -74.046875 L 42 -74.046875 C 46.226562 -74.046875 49.984375 -73.460938 53.265625 -72.296875 C 56.546875 -71.140625 59.242188 -69.535156 61.359375 -67.484375 C 64.523438 -64.171875 66.109375 -60.222656 66.109375 -55.640625 L 66.109375 -55.421875 C 66.109375 -53.023438 65.773438 -50.890625 65.109375 -49.015625 C 64.441406 -47.148438 63.539062 -45.53125 62.40625 -44.15625 C 61.28125 -42.78125 60.03125 -41.617188 58.65625 -40.671875 C 57.28125 -39.722656 55.851562 -38.929688 54.375 -38.296875 C 56.5625 -37.660156 58.625 -36.828125 60.5625 -35.796875 C 62.5 -34.773438 64.171875 -33.5625 65.578125 -32.15625 C 66.992188 -30.75 68.125 -29.070312 68.96875 -27.125 C 69.8125 -25.1875 70.234375 -22.953125 70.234375 -20.421875 L 70.234375 -20.203125 C 70.234375 -17.023438 69.597656 -14.1875 68.328125 -11.6875 C 67.066406 -9.1875 65.253906 -7.070312 62.890625 -5.34375 C 60.523438 -3.613281 57.6875 -2.289062 54.375 -1.375 C 51.0625 -0.457031 47.394531 0 43.375 0 L 10.46875 0 Z M 57.65625 -54.484375 C 57.65625 -58.148438 56.242188 -61.070312 53.421875 -63.25 C 50.597656 -65.4375 46.539062 -66.53125 41.25 -66.53125 L 18.71875 -66.53125 L 18.71875 -41.046875 L 40.625 -41.046875 C 45.695312 -41.046875 49.800781 -42.15625 52.9375 -44.375 C 56.082031 -46.59375 57.65625 -49.890625 57.65625 -54.265625 Z M 61.78125 -20.9375 C 61.78125 -24.957031 60.117188 -28.078125 56.796875 -30.296875 C 53.484375 -32.523438 48.582031 -33.640625 42.09375 -33.640625 L 18.71875 -33.640625 L 18.71875 -7.515625 L 43.578125 -7.515625 C 49.222656 -7.515625 53.664062 -8.675781 56.90625 -11 C 60.15625 -13.320312 61.78125 -16.566406 61.78125 -20.734375 Z M 61.78125 -20.9375 "/></g></g></g><g fill="#000000" fill-opacity="1"><g transform="translate(262.387445, 123.796587)"><g><path d="M 10.46875 -74.046875 L 42.3125 -74.046875 C 46.894531 -74.046875 50.96875 -73.394531 54.53125 -72.09375 C 58.09375 -70.789062 61.035156 -68.972656 63.359375 -66.640625 C 65.191406 -64.804688 66.601562 -62.65625 67.59375 -60.1875 C 68.582031 -57.71875 69.078125 -55.003906 69.078125 -52.046875 L 69.078125 -51.828125 C 69.078125 -48.722656 68.582031 -45.953125 67.59375 -43.515625 C 66.601562 -41.085938 65.207031 -38.972656 63.40625 -37.171875 C 61.613281 -35.378906 59.484375 -33.898438 57.015625 -32.734375 C 54.546875 -31.578125 51.867188 -30.75 48.984375 -30.25 L 71.71875 0 L 61.453125 0 L 39.984375 -28.765625 L 18.828125 -28.765625 L 18.828125 0 L 10.46875 0 Z M 41.578125 -36.28125 C 44.328125 -36.28125 46.863281 -36.632812 49.1875 -37.34375 C 51.507812 -38.050781 53.515625 -39.054688 55.203125 -40.359375 C 56.898438 -41.660156 58.222656 -43.242188 59.171875 -45.109375 C 60.128906 -46.984375 60.609375 -49.117188 60.609375 -51.515625 L 60.609375 -51.734375 C 60.609375 -56.316406 58.953125 -59.894531 55.640625 -62.46875 C 52.328125 -65.039062 47.671875 -66.328125 41.671875 -66.328125 L 18.828125 -66.328125 L 18.828125 -36.28125 Z M 41.578125 -36.28125 "/></g></g></g><g fill="#000000" fill-opacity="1"><g transform="translate(338.230267, 123.796587)"><g><path d="M 37.875 -74.578125 L 45.703125 -74.578125 L 79.4375 0 L 70.453125 0 L 61.78125 -19.5625 L 21.46875 -19.5625 L 12.6875 0 L 4.125 0 Z M 58.5 -27.078125 L 41.671875 -64.84375 L 24.75 -27.078125 Z M 58.5 -27.078125 "/></g></g></g><g fill="#000000" fill-opacity="1"><g transform="translate(421.160234, 123.796587)"><g><path d="M 10.46875 -74.046875 L 64 -74.046875 L 64 -66.4375 L 18.828125 -66.4375 L 18.828125 -41.15625 L 59.234375 -41.15625 L 59.234375 -33.53125 L 18.828125 -33.53125 L 18.828125 -7.609375 L 64.53125 -7.609375 L 64.53125 0 L 10.46875 0 Z M 10.46875 -74.046875 "/></g></g></g><g fill="#000000" fill-opacity="1"><g transform="translate(491.396826, 123.796587)"><g><path d="M 35.859375 1.0625 C 29.929688 1.0625 24.515625 0.09375 19.609375 -1.84375 C 14.710938 -3.789062 10.046875 -6.773438 5.609375 -10.796875 L 10.796875 -16.921875 C 14.671875 -13.398438 18.582031 -10.773438 22.53125 -9.046875 C 26.476562 -7.316406 31.023438 -6.453125 36.171875 -6.453125 C 41.179688 -6.453125 45.179688 -7.632812 48.171875 -10 C 51.171875 -12.363281 52.671875 -15.378906 52.671875 -19.046875 L 52.671875 -19.25 C 52.671875 -20.945312 52.390625 -22.484375 51.828125 -23.859375 C 51.265625 -25.234375 50.273438 -26.484375 48.859375 -27.609375 C 47.453125 -28.734375 45.5 -29.753906 43 -30.671875 C 40.5 -31.585938 37.304688 -32.472656 33.421875 -33.328125 C 29.191406 -34.242188 25.507812 -35.300781 22.375 -36.5 C 19.238281 -37.695312 16.644531 -39.140625 14.59375 -40.828125 C 12.550781 -42.523438 11.035156 -44.5 10.046875 -46.75 C 9.054688 -49.007812 8.5625 -51.65625 8.5625 -54.6875 L 8.5625 -54.90625 C 8.5625 -57.789062 9.160156 -60.46875 10.359375 -62.9375 C 11.566406 -65.40625 13.257812 -67.535156 15.4375 -69.328125 C 17.625 -71.128906 20.195312 -72.539062 23.15625 -73.5625 C 26.125 -74.59375 29.367188 -75.109375 32.890625 -75.109375 C 38.328125 -75.109375 43.070312 -74.347656 47.125 -72.828125 C 51.175781 -71.316406 55.109375 -69.039062 58.921875 -66 L 54.046875 -59.5625 C 50.597656 -62.375 47.128906 -64.414062 43.640625 -65.6875 C 40.148438 -66.957031 36.5 -67.59375 32.6875 -67.59375 C 27.820312 -67.59375 23.976562 -66.445312 21.15625 -64.15625 C 18.332031 -61.863281 16.921875 -59.023438 16.921875 -55.640625 L 16.921875 -55.421875 C 16.921875 -53.660156 17.203125 -52.09375 17.765625 -50.71875 C 18.335938 -49.34375 19.363281 -48.070312 20.84375 -46.90625 C 22.320312 -45.75 24.363281 -44.691406 26.96875 -43.734375 C 29.582031 -42.785156 32.9375 -41.890625 37.03125 -41.046875 C 45.28125 -39.210938 51.359375 -36.671875 55.265625 -33.421875 C 59.179688 -30.179688 61.140625 -25.738281 61.140625 -20.09375 L 61.140625 -19.890625 C 61.140625 -16.710938 60.503906 -13.835938 59.234375 -11.265625 C 57.960938 -8.691406 56.21875 -6.488281 54 -4.65625 C 51.78125 -2.820312 49.117188 -1.410156 46.015625 -0.421875 C 42.910156 0.566406 39.523438 1.0625 35.859375 1.0625 Z M 35.859375 1.0625 "/></g></g></g><g fill="#000000" fill-opacity="1"><g transform="translate(558.460062, 123.796587)"><g><path d="M 4.125 -74.046875 L 13.4375 -74.046875 L 39.78125 -10.265625 L 66.21875 -74.046875 L 75.203125 -74.046875 L 43.375 0.53125 L 35.96875 0.53125 Z M 4.125 -74.046875 "/></g></g></g><g fill="#000000" fill-opacity="1"><g transform="translate(637.158904, 123.796587)"><g><path d="M 37.875 -74.578125 L 45.703125 -74.578125 L 79.4375 0 L 70.453125 0 L 61.78125 -19.5625 L 21.46875 -19.5625 L 12.6875 0 L 4.125 0 Z M 58.5 -27.078125 L 41.671875 -64.84375 L 24.75 -27.078125 Z M 58.5 -27.078125 "/></g></g></g></svg>
